<svg width="151" height="36" viewBox="0 0 151 36" fill="none" xmlns="http://www.w3.org/2000/svg">
<path d="M3.192 35.384C2.232 35.384 1.496 35.128 0.984 34.616C0.472 34.072 0.216 33.304 0.216 32.312V14.168C0.216 13.176 0.472 12.424 0.984 11.912C1.496 11.4 2.216 11.144 3.144 11.144C4.072 11.144 4.792 11.4 5.304 11.912C5.816 12.424 6.072 13.176 6.072 14.168V17.672L5.544 16.232C6.184 14.632 7.176 13.368 8.52 12.44C9.864 11.512 11.464 11.048 13.32 11.048C15.208 11.048 16.76 11.496 17.976 12.392C19.192 13.288 20.04 14.664 20.52 16.52H19.848C20.488 14.824 21.544 13.496 23.016 12.536C24.488 11.544 26.184 11.048 28.104 11.048C29.896 11.048 31.368 11.4 32.52 12.104C33.704 12.808 34.584 13.88 35.16 15.32C35.736 16.728 36.024 18.52 36.024 20.696V32.312C36.024 33.304 35.752 34.072 35.208 34.616C34.696 35.128 33.96 35.384 33 35.384C32.04 35.384 31.304 35.128 30.792 34.616C30.28 34.072 30.024 33.304 30.024 32.312V20.936C30.024 19.144 29.72 17.832 29.112 17C28.536 16.168 27.544 15.752 26.136 15.752C24.568 15.752 23.336 16.312 22.44 17.432C21.544 18.52 21.096 20.04 21.096 21.992V32.312C21.096 33.304 20.84 34.072 20.328 34.616C19.816 35.128 19.08 35.384 18.12 35.384C17.16 35.384 16.408 35.128 15.864 34.616C15.352 34.072 15.096 33.304 15.096 32.312V20.936C15.096 19.144 14.792 17.832 14.184 17C13.608 16.168 12.632 15.752 11.256 15.752C9.688 15.752 8.456 16.312 7.56 17.432C6.664 18.52 6.216 20.04 6.216 21.992V32.312C6.216 34.36 5.208 35.384 3.192 35.384ZM63.192 35.384C62.392 35.384 61.704 35.192 61.128 34.808C60.552 34.392 60.088 33.752 59.736 32.888L52.776 15.128C52.488 14.36 52.392 13.688 52.488 13.112C52.616 12.504 52.92 12.024 53.4 11.672C53.88 11.32 54.52 11.144 55.32 11.144C56.024 11.144 56.6 11.32 57.048 11.672C57.496 11.992 57.88 12.616 58.2 13.544L64.008 29.528H62.904L68.904 13.16C69.16 12.456 69.496 11.944 69.912 11.624C70.36 11.304 70.936 11.144 71.64 11.144C72.344 11.144 72.92 11.32 73.368 11.672C73.816 11.992 74.152 12.488 74.376 13.16L80.28 29.528H79.272L85.128 13.4C85.448 12.536 85.848 11.944 86.328 11.624C86.84 11.304 87.4 11.144 88.008 11.144C88.776 11.144 89.368 11.336 89.784 11.72C90.2 12.104 90.44 12.6 90.504 13.208C90.568 13.784 90.456 14.424 90.168 15.128L83.256 32.888C82.936 33.72 82.472 34.344 81.864 34.76C81.288 35.176 80.6 35.384 79.8 35.384C79 35.384 78.296 35.176 77.688 34.76C77.112 34.344 76.664 33.72 76.344 32.888L70.056 16.232H72.792L66.648 32.84C66.328 33.704 65.88 34.344 65.304 34.76C64.728 35.176 64.024 35.384 63.192 35.384ZM102.301 35.48C100.605 35.48 99.0851 35.16 97.7411 34.52C96.4291 33.848 95.3891 32.952 94.6211 31.832C93.8851 30.712 93.5171 29.448 93.5171 28.04C93.5171 26.312 93.9651 24.952 94.8611 23.96C95.7571 22.936 97.2131 22.2 99.2291 21.752C101.245 21.304 103.949 21.08 107.341 21.08H109.741V24.536H107.389C105.405 24.536 103.821 24.632 102.637 24.824C101.453 25.016 100.605 25.352 100.093 25.832C99.6131 26.28 99.3731 26.92 99.3731 27.752C99.3731 28.808 99.7411 29.672 100.477 30.344C101.213 31.016 102.237 31.352 103.549 31.352C104.605 31.352 105.533 31.112 106.333 30.632C107.165 30.12 107.821 29.432 108.301 28.568C108.781 27.704 109.021 26.712 109.021 25.592V20.072C109.021 18.472 108.669 17.32 107.965 16.616C107.261 15.912 106.077 15.56 104.413 15.56C103.485 15.56 102.477 15.672 101.389 15.896C100.333 16.12 99.2131 16.504 98.0291 17.048C97.4211 17.336 96.8771 17.416 96.3971 17.288C95.9491 17.16 95.5971 16.904 95.3411 16.52C95.0851 16.104 94.9571 15.656 94.9571 15.176C94.9571 14.696 95.0851 14.232 95.3411 13.784C95.5971 13.304 96.0291 12.952 96.6371 12.728C98.1091 12.12 99.5171 11.688 100.861 11.432C102.237 11.176 103.485 11.048 104.605 11.048C106.909 11.048 108.797 11.4 110.269 12.104C111.773 12.808 112.893 13.88 113.629 15.32C114.365 16.728 114.733 18.552 114.733 20.792V32.312C114.733 33.304 114.493 34.072 114.013 34.616C113.533 35.128 112.845 35.384 111.949 35.384C111.053 35.384 110.349 35.128 109.837 34.616C109.357 34.072 109.117 33.304 109.117 32.312V30.008H109.501C109.277 31.128 108.829 32.104 108.157 32.936C107.517 33.736 106.701 34.36 105.709 34.808C104.717 35.256 103.581 35.48 102.301 35.48ZM122.263 35C121.655 35 121.143 34.856 120.727 34.568C120.343 34.248 120.087 33.848 119.959 33.368C119.831 32.888 119.831 32.376 119.959 31.832C120.119 31.256 120.423 30.712 120.871 30.2L133.303 14.6V16.04H121.975C121.239 16.04 120.663 15.848 120.247 15.464C119.863 15.048 119.671 14.488 119.671 13.784C119.671 13.048 119.863 12.488 120.247 12.104C120.663 11.72 121.239 11.528 121.975 11.528H136.183C136.887 11.528 137.463 11.688 137.911 12.008C138.359 12.296 138.647 12.68 138.775 13.16C138.935 13.64 138.951 14.152 138.823 14.696C138.695 15.24 138.407 15.752 137.959 16.232L125.287 32.072V30.488H137.287C138.823 30.488 139.591 31.24 139.591 32.744C139.591 33.448 139.383 34.008 138.967 34.424C138.583 34.808 138.023 35 137.287 35H122.263ZM146.534 35.336C145.574 35.336 144.838 35.048 144.326 34.472C143.814 33.896 143.558 33.096 143.558 32.072V14.456C143.558 13.4 143.814 12.6 144.326 12.056C144.838 11.48 145.574 11.192 146.534 11.192C147.494 11.192 148.23 11.48 148.742 12.056C149.286 12.6 149.558 13.4 149.558 14.456V32.072C149.558 33.096 149.302 33.896 148.79 34.472C148.278 35.048 147.526 35.336 146.534 35.336ZM146.534 6.728C145.414 6.728 144.534 6.456 143.894 5.912C143.286 5.336 142.982 4.552 142.982 3.56C142.982 2.536 143.286 1.752 143.894 1.208C144.534 0.663999 145.414 0.391999 146.534 0.391999C147.686 0.391999 148.566 0.663999 149.174 1.208C149.782 1.752 150.086 2.536 150.086 3.56C150.086 4.552 149.782 5.336 149.174 5.912C148.566 6.456 147.686 6.728 146.534 6.728Z" fill="#01042F"/>
<path d="M45.0938 35.24C44.0058 35.24 43.1258 34.904 42.4538 34.232C41.8138 33.56 41.4938 32.696 41.4938 31.64C41.4938 30.616 41.8138 29.784 42.4538 29.144C43.1258 28.472 44.0058 28.136 45.0938 28.136C46.2138 28.136 47.0778 28.472 47.6858 29.144C48.3258 29.784 48.6458 30.616 48.6458 31.64C48.6458 32.696 48.3258 33.56 47.6858 34.232C47.0778 34.904 46.2138 35.24 45.0938 35.24Z" fill="#2534FE"/>
</svg>

