<svg width="14" height="14" viewBox="0 0 14 14" fill="none" xmlns="http://www.w3.org/2000/svg">
<g clip-path="url(#clip0_2132_26628)">
<path d="M2.91536 5.2513C3.07007 5.2513 3.21845 5.31276 3.32784 5.42216C3.43724 5.53155 3.4987 5.67993 3.4987 5.83464C4.4152 5.83328 5.30527 6.14162 6.02453 6.70964H7.29036C8.06795 6.70964 8.7662 7.04797 9.24686 7.58464H11.082C11.6334 7.58448 12.1736 7.74064 12.6398 8.03499C13.1061 8.32935 13.4794 8.74984 13.7164 9.24772C12.3368 11.0683 10.1032 12.2513 7.58203 12.2513C5.95453 12.2513 4.57786 11.8996 3.4637 11.2841C3.42289 11.3968 3.34834 11.494 3.25021 11.5627C3.15208 11.6314 3.03515 11.6682 2.91536 11.668H1.16536C1.01065 11.668 0.862282 11.6065 0.752886 11.4971C0.643489 11.3877 0.582031 11.2393 0.582031 11.0846V5.83464C0.582031 5.67993 0.643489 5.53155 0.752886 5.42216C0.862282 5.31276 1.01065 5.2513 1.16536 5.2513H2.91536ZM3.49928 7.0013L3.4987 9.9308L3.52495 9.94947C4.57203 10.6845 5.93586 11.0846 7.58203 11.0846C9.33436 11.0846 10.9648 10.4103 12.1524 9.2588L12.23 9.18122L12.16 9.12289C11.8846 8.90715 11.5507 8.77912 11.2016 8.75538L11.082 8.7513H9.85061C9.89261 8.93914 9.91536 9.13397 9.91536 9.33463V9.91797H4.66536V8.7513L8.6262 8.75072L8.60636 8.70522C8.49457 8.47162 8.32261 8.27198 8.10815 8.12682C7.89369 7.98166 7.64445 7.8962 7.38603 7.87922L7.29036 7.8763H5.5812C5.31013 7.59906 4.98636 7.37882 4.62892 7.22856C4.27148 7.07829 3.8876 7.00102 3.49986 7.0013H3.49928ZM2.33203 6.41797H1.7487V10.5013H2.33203V6.41797ZM10.4987 2.91797C10.9628 2.91797 11.4079 3.10234 11.7361 3.43053C12.0643 3.75872 12.2487 4.20384 12.2487 4.66797C12.2487 5.1321 12.0643 5.57722 11.7361 5.90541C11.4079 6.23359 10.9628 6.41797 10.4987 6.41797C10.0346 6.41797 9.58945 6.23359 9.26126 5.90541C8.93307 5.57722 8.7487 5.1321 8.7487 4.66797C8.7487 4.20384 8.93307 3.75872 9.26126 3.43053C9.58945 3.10234 10.0346 2.91797 10.4987 2.91797ZM10.4987 4.08464C10.344 4.08464 10.1956 4.14609 10.0862 4.25549C9.97682 4.36489 9.91536 4.51326 9.91536 4.66797C9.91536 4.82268 9.97682 4.97105 10.0862 5.08045C10.1956 5.18984 10.344 5.2513 10.4987 5.2513C10.6534 5.2513 10.8018 5.18984 10.9112 5.08045C11.0206 4.97105 11.082 4.82268 11.082 4.66797C11.082 4.51326 11.0206 4.36489 10.9112 4.25549C10.8018 4.14609 10.6534 4.08464 10.4987 4.08464ZM6.41536 1.16797C6.87949 1.16797 7.32461 1.35234 7.6528 1.68053C7.98099 2.00872 8.16536 2.45384 8.16536 2.91797C8.16536 3.3821 7.98099 3.82722 7.6528 4.15541C7.32461 4.48359 6.87949 4.66797 6.41536 4.66797C5.95124 4.66797 5.50612 4.48359 5.17793 4.15541C4.84974 3.82722 4.66536 3.3821 4.66536 2.91797C4.66536 2.45384 4.84974 2.00872 5.17793 1.68053C5.50612 1.35234 5.95124 1.16797 6.41536 1.16797ZM6.41536 2.33464C6.26065 2.33464 6.11228 2.39609 6.00289 2.50549C5.89349 2.61489 5.83203 2.76326 5.83203 2.91797C5.83203 3.07268 5.89349 3.22105 6.00289 3.33045C6.11228 3.43984 6.26065 3.5013 6.41536 3.5013C6.57007 3.5013 6.71845 3.43984 6.82784 3.33045C6.93724 3.22105 6.9987 3.07268 6.9987 2.91797C6.9987 2.76326 6.93724 2.61489 6.82784 2.50549C6.71845 2.39609 6.57007 2.33464 6.41536 2.33464Z" fill="#98A2B3"/>
</g>
<defs>
<clipPath id="clip0_2132_26628">
<rect width="14" height="14" fill="white"/>
</clipPath>
</defs>
</svg>
