<svg width="24" height="24" viewBox="0 0 24 24" fill="none" xmlns="http://www.w3.org/2000/svg">
<g clip-path="url(#clip0_2142_13975)">
<path d="M23.7663 12.2782C23.7663 11.4625 23.7001 10.6423 23.559 9.83984H12.2402V14.4608H18.722C18.453 15.9512 17.5888 17.2696 16.3233 18.1073V21.1057H20.1903C22.4611 19.0157 23.7663 15.9291 23.7663 12.2782Z" fill="#4285F4"/>
<path d="M12.2391 24.0013C15.4756 24.0013 18.205 22.9387 20.1936 21.1044L16.3266 18.106C15.2507 18.838 13.8618 19.2525 12.2435 19.2525C9.11291 19.2525 6.45849 17.1404 5.50607 14.3008H1.51562V17.3917C3.55274 21.4439 7.70192 24.0013 12.2391 24.0013Z" fill="#34A853"/>
<path d="M5.50277 14.2987C5.00011 12.8084 5.00011 11.1946 5.50277 9.70422V6.61328H1.51674C-0.185266 10.0041 -0.185266 13.9989 1.51674 17.3897L5.50277 14.2987Z" fill="#FBBC04"/>
<path d="M12.2391 4.74966C13.9499 4.7232 15.6034 5.36697 16.8425 6.54867L20.2685 3.12262C18.0991 1.0855 15.2198 -0.034466 12.2391 0.000808666C7.70192 0.000808666 3.55274 2.55822 1.51562 6.61481L5.50166 9.70575C6.44967 6.86173 9.1085 4.74966 12.2391 4.74966Z" fill="#EA4335"/>
</g>
<defs>
<clipPath id="clip0_2142_13975">
<rect width="24" height="24" fill="white"/>
</clipPath>
</defs>
</svg>
