<svg width="9" height="12" viewBox="0 0 9 12" fill="none" xmlns="http://www.w3.org/2000/svg">
  <path d="M1.92239 11.6797C2.22656 11.6797 2.47122 11.5781 2.68281 11.375L7.66189 6.71582C7.94622 6.44287 8.07186 6.17627 8.07847 5.83984C8.07847 5.50977 7.94622 5.23047 7.66189 4.96387L2.68942 0.29834C2.47122 0.101562 2.21995 0 1.92239 0C1.31406 0 0.811523 0.469727 0.811523 1.05371C0.811523 1.3457 0.94377 1.6123 1.16859 1.83447L5.48644 5.84619L1.16859 9.84521C0.937158 10.0674 0.811523 10.334 0.811523 10.626C0.811523 11.2036 1.31406 11.6797 1.92239 11.6797Z" fill="currentColor"/>
</svg>
