<svg width="24" height="24" viewBox="0 0 24 24" fill="none" xmlns="http://www.w3.org/2000/svg">
  <g clip-path="url(#clip0_2912_25746)">
    <path d="M13.1202 17.0247L8.92121 14.7347C8.373 15.3207 7.66119 15.7284 6.87828 15.9046C6.09537 16.0808 5.27756 16.0174 4.53113 15.7227C3.7847 15.428 3.14417 14.9156 2.69277 14.2521C2.24138 13.5886 2 12.8047 2 12.0022C2 11.1997 2.24138 10.4157 2.69277 9.75222C3.14417 9.08872 3.7847 8.57632 4.53113 8.28163C5.27756 7.98694 6.09537 7.92358 6.87828 8.09978C7.66119 8.27599 8.373 8.6836 8.92121 9.26967L13.1212 6.97967C12.8828 6.03574 12.9968 5.03726 13.4418 4.17137C13.8869 3.30549 14.6325 2.63165 15.5389 2.27617C16.4452 1.92069 17.4501 1.90797 18.3652 2.2404C19.2803 2.57283 20.0427 3.22758 20.5095 4.08193C20.9764 4.93627 21.1156 5.93156 20.9011 6.88121C20.6866 7.83087 20.1332 8.6697 19.3444 9.24048C18.5557 9.81125 17.5859 10.0748 16.6168 9.98166C15.6477 9.88855 14.7458 9.44518 14.0802 8.73467L9.88021 11.0247C10.0414 11.666 10.0414 12.3373 9.88021 12.9787L14.0792 15.2687C14.7448 14.5582 15.6467 14.1148 16.6158 14.0217C17.5849 13.9286 18.5547 14.1921 19.3434 14.7629C20.1322 15.3336 20.6856 16.1725 20.9001 17.1221C21.1146 18.0718 20.9754 19.0671 20.5085 19.9214C20.0417 20.7758 19.2793 21.4305 18.3642 21.7629C17.4491 22.0954 16.4442 22.0826 15.5379 21.7272C14.6315 21.3717 13.8859 20.6979 13.4408 19.832C12.9958 18.9661 12.8818 17.9676 13.1202 17.0237V17.0247ZM6.00021 14.0017C6.53064 14.0017 7.03935 13.791 7.41442 13.4159C7.78949 13.0408 8.00021 12.5321 8.00021 12.0017C8.00021 11.4712 7.78949 10.9625 7.41442 10.5875C7.03935 10.2124 6.53064 10.0017 6.00021 10.0017C5.46977 10.0017 4.96107 10.2124 4.58599 10.5875C4.21092 10.9625 4.00021 11.4712 4.00021 12.0017C4.00021 12.5321 4.21092 13.0408 4.58599 13.4159C4.96107 13.791 5.46977 14.0017 6.00021 14.0017ZM17.0002 8.00167C17.5306 8.00167 18.0393 7.79096 18.4144 7.41588C18.7895 7.04081 19.0002 6.5321 19.0002 6.00167C19.0002 5.47124 18.7895 4.96253 18.4144 4.58745C18.0393 4.21238 17.5306 4.00167 17.0002 4.00167C16.4698 4.00167 15.9611 4.21238 15.586 4.58745C15.2109 4.96253 15.0002 5.47124 15.0002 6.00167C15.0002 6.5321 15.2109 7.04081 15.586 7.41588C15.9611 7.79096 16.4698 8.00167 17.0002 8.00167ZM17.0002 20.0017C17.5306 20.0017 18.0393 19.791 18.4144 19.4159C18.7895 19.0408 19.0002 18.5321 19.0002 18.0017C19.0002 17.4712 18.7895 16.9625 18.4144 16.5875C18.0393 16.2124 17.5306 16.0017 17.0002 16.0017C16.4698 16.0017 15.9611 16.2124 15.586 16.5875C15.2109 16.9625 15.0002 17.4712 15.0002 18.0017C15.0002 18.5321 15.2109 19.0408 15.586 19.4159C15.9611 19.791 16.4698 20.0017 17.0002 20.0017Z" fill="white"/>
  </g>
  <defs>
    <clipPath id="clip0_2912_25746">
      <rect width="24" height="24" fill="white"/>
    </clipPath>
  </defs>
</svg>
