<svg width="32" height="32" viewBox="0 0 32 32" fill="none" xmlns="http://www.w3.org/2000/svg">
  <g filter="url(#filter0_i_2555_24228)">
    <path d="M12.6226 5.38229C12.6226 3.56609 14.0949 2.09375 15.9111 2.09375C17.7273 2.09375 19.1996 3.56609 19.1996 5.38229V9.16675C19.1996 9.48949 19.1773 9.81129 19.1274 10.133C19.1092 10.2505 19.091 10.3678 19.0796 10.485C19.0437 10.8554 19.0876 11.3393 19.3394 11.6643L18.738 12.2443C21.7532 13.7848 23.8194 16.9349 23.8194 20.5707C23.8194 21.5557 23.6677 22.505 23.3866 23.3964L22.3902 29.9029H14.2886V29.9001C9.28551 29.7924 5.27148 26.5298 5.27148 20.5707C5.27148 17.0677 6.94879 14.2477 9.48632 12.6576L9.48004 12.6525C9.6529 12.5324 9.85674 12.4102 10.0753 12.2792L10.0769 12.2782C10.7966 11.8468 11.6761 11.3195 12.1402 10.4572C12.5425 9.70964 12.6207 8.49629 12.6207 7.93379L12.6226 7.93465V5.38229Z" fill="url(#paint0_linear_2555_24228)"/>
  </g>
  <path d="M12.6226 5.38229C12.6226 3.56609 14.0949 2.09375 15.9111 2.09375C17.7273 2.09375 19.1996 3.56609 19.1996 5.38229V9.16675C19.1996 9.48949 19.1773 9.81129 19.1274 10.133C19.1092 10.2505 19.091 10.3678 19.0796 10.485C19.0437 10.8554 19.0876 11.3393 19.3394 11.6643L18.738 12.2443C21.7532 13.7848 23.8194 16.9349 23.8194 20.5707C23.8194 21.5557 23.6677 22.505 23.3866 23.3964L22.3902 29.9029H14.2886V29.9001C9.28551 29.7924 5.27148 26.5298 5.27148 20.5707C5.27148 17.0677 6.94879 14.2477 9.48632 12.6576L9.48004 12.6525C9.6529 12.5324 9.85674 12.4102 10.0753 12.2792L10.0769 12.2782C10.7966 11.8468 11.6761 11.3195 12.1402 10.4572C12.5425 9.70964 12.6207 8.49629 12.6207 7.93379L12.6226 7.93465V5.38229Z" fill="url(#paint1_radial_2555_24228)"/>
  <path d="M12.6226 5.38229C12.6226 3.56609 14.0949 2.09375 15.9111 2.09375C17.7273 2.09375 19.1996 3.56609 19.1996 5.38229V9.16675C19.1996 9.48949 19.1773 9.81129 19.1274 10.133C19.1092 10.2505 19.091 10.3678 19.0796 10.485C19.0437 10.8554 19.0876 11.3393 19.3394 11.6643L18.738 12.2443C21.7532 13.7848 23.8194 16.9349 23.8194 20.5707C23.8194 21.5557 23.6677 22.505 23.3866 23.3964L22.3902 29.9029H14.2886V29.9001C9.28551 29.7924 5.27148 26.5298 5.27148 20.5707C5.27148 17.0677 6.94879 14.2477 9.48632 12.6576L9.48004 12.6525C9.6529 12.5324 9.85674 12.4102 10.0753 12.2792L10.0769 12.2782C10.7966 11.8468 11.6761 11.3195 12.1402 10.4572C12.5425 9.70964 12.6207 8.49629 12.6207 7.93379L12.6226 7.93465V5.38229Z" fill="url(#paint2_radial_2555_24228)"/>
  <path d="M12.6226 5.38229C12.6226 3.56609 14.0949 2.09375 15.9111 2.09375C17.7273 2.09375 19.1996 3.56609 19.1996 5.38229V9.16675C19.1996 9.48949 19.1773 9.81129 19.1274 10.133C19.1092 10.2505 19.091 10.3678 19.0796 10.485C19.0437 10.8554 19.0876 11.3393 19.3394 11.6643L18.738 12.2443C21.7532 13.7848 23.8194 16.9349 23.8194 20.5707C23.8194 21.5557 23.6677 22.505 23.3866 23.3964L22.3902 29.9029H14.2886V29.9001C9.28551 29.7924 5.27148 26.5298 5.27148 20.5707C5.27148 17.0677 6.94879 14.2477 9.48632 12.6576L9.48004 12.6525C9.6529 12.5324 9.85674 12.4102 10.0753 12.2792L10.0769 12.2782C10.7966 11.8468 11.6761 11.3195 12.1402 10.4572C12.5425 9.70964 12.6207 8.49629 12.6207 7.93379L12.6226 7.93465V5.38229Z" fill="url(#paint3_radial_2555_24228)"/>
  <path d="M12.6226 5.38229C12.6226 3.56609 14.0949 2.09375 15.9111 2.09375C17.7273 2.09375 19.1996 3.56609 19.1996 5.38229V9.16675C19.1996 9.48949 19.1773 9.81129 19.1274 10.133C19.1092 10.2505 19.091 10.3678 19.0796 10.485C19.0437 10.8554 19.0876 11.3393 19.3394 11.6643L18.738 12.2443C21.7532 13.7848 23.8194 16.9349 23.8194 20.5707C23.8194 21.5557 23.6677 22.505 23.3866 23.3964L22.3902 29.9029H14.2886V29.9001C9.28551 29.7924 5.27148 26.5298 5.27148 20.5707C5.27148 17.0677 6.94879 14.2477 9.48632 12.6576L9.48004 12.6525C9.6529 12.5324 9.85674 12.4102 10.0753 12.2792L10.0769 12.2782C10.7966 11.8468 11.6761 11.3195 12.1402 10.4572C12.5425 9.70964 12.6207 8.49629 12.6207 7.93379L12.6226 7.93465V5.38229Z" fill="url(#paint4_radial_2555_24228)"/>
  <path d="M12.6226 5.38229C12.6226 3.56609 14.0949 2.09375 15.9111 2.09375C17.7273 2.09375 19.1996 3.56609 19.1996 5.38229V9.16675C19.1996 9.48949 19.1773 9.81129 19.1274 10.133C19.1092 10.2505 19.091 10.3678 19.0796 10.485C19.0437 10.8554 19.0876 11.3393 19.3394 11.6643L18.738 12.2443C21.7532 13.7848 23.8194 16.9349 23.8194 20.5707C23.8194 21.5557 23.6677 22.505 23.3866 23.3964L22.3902 29.9029H14.2886V29.9001C9.28551 29.7924 5.27148 26.5298 5.27148 20.5707C5.27148 17.0677 6.94879 14.2477 9.48632 12.6576L9.48004 12.6525C9.6529 12.5324 9.85674 12.4102 10.0753 12.2792L10.0769 12.2782C10.7966 11.8468 11.6761 11.3195 12.1402 10.4572C12.5425 9.70964 12.6207 8.49629 12.6207 7.93379L12.6226 7.93465V5.38229Z" fill="url(#paint5_radial_2555_24228)"/>
  <path d="M12.6226 5.38229C12.6226 3.56609 14.0949 2.09375 15.9111 2.09375C17.7273 2.09375 19.1996 3.56609 19.1996 5.38229V9.16675C19.1996 9.48949 19.1773 9.81129 19.1274 10.133C19.1092 10.2505 19.091 10.3678 19.0796 10.485C19.0437 10.8554 19.0876 11.3393 19.3394 11.6643L18.738 12.2443C21.7532 13.7848 23.8194 16.9349 23.8194 20.5707C23.8194 21.5557 23.6677 22.505 23.3866 23.3964L22.3902 29.9029H14.2886V29.9001C9.28551 29.7924 5.27148 26.5298 5.27148 20.5707C5.27148 17.0677 6.94879 14.2477 9.48632 12.6576L9.48004 12.6525C9.6529 12.5324 9.85674 12.4102 10.0753 12.2792L10.0769 12.2782C10.7966 11.8468 11.6761 11.3195 12.1402 10.4572C12.5425 9.70964 12.6207 8.49629 12.6207 7.93379L12.6226 7.93465V5.38229Z" fill="url(#paint6_radial_2555_24228)"/>
  <g filter="url(#filter1_f_2555_24228)">
    <path d="M24.0331 14.9346C24.0331 13.5253 22.8906 12.3828 21.4813 12.3828H18.6548C17.2455 12.3828 16.103 13.5253 16.103 14.9346C16.103 15.7205 16.4583 16.4234 17.017 16.8915C16.3993 17.3589 16 18.1008 16 18.934C16 19.7141 16.3501 20.4142 16.9017 20.8838C16.3501 21.3519 16 22.0502 16 22.8304V22.9562C16 23.6554 16.2812 24.2889 16.7367 24.7498C16.2818 25.1999 16 25.8246 16 26.515C16 27.8864 17.1117 28.9982 18.4831 28.9982H21.2868C22.6582 28.9982 23.7699 27.8864 23.7699 26.515C23.7699 26.0611 23.6481 25.6356 23.4354 25.2695C24.3055 24.863 24.9085 23.98 24.9085 22.9562V22.8303C24.9085 22.0407 24.5498 21.3349 23.9866 20.8668C24.5268 20.3974 24.8685 19.7047 24.8685 18.934C24.8685 17.9117 24.2673 17.0268 23.3993 16.6179C23.7939 16.1686 24.0331 15.5796 24.0331 14.9346Z" fill="url(#paint7_linear_2555_24228)"/>
  </g>
  <g filter="url(#filter2_i_2555_24228)">
    <rect x="26.3105" y="10.9531" width="5.82021" height="9.0435" rx="2.9101" transform="rotate(90 26.3105 10.9531)" fill="url(#paint8_linear_2555_24228)"/>
    <rect x="26.3105" y="10.9531" width="5.82021" height="9.0435" rx="2.9101" transform="rotate(90 26.3105 10.9531)" fill="url(#paint9_radial_2555_24228)"/>
  </g>
  <g filter="url(#filter3_f_2555_24228)">
    <rect x="19.2109" y="12.3828" width="6.13569" height="2.51555" rx="1.25777" fill="url(#paint10_linear_2555_24228)"/>
  </g>
  <g filter="url(#filter4_i_2555_24228)">
    <rect x="26.0117" y="24.2422" width="5.6636" height="8.86086" rx="2.8318" transform="rotate(90 26.0117 24.2422)" fill="url(#paint11_linear_2555_24228)"/>
    <rect x="26.0117" y="24.2422" width="5.6636" height="8.86086" rx="2.8318" transform="rotate(90 26.0117 24.2422)" fill="url(#paint12_radial_2555_24228)"/>
    <rect x="26.0117" y="24.2422" width="5.6636" height="8.86086" rx="2.8318" transform="rotate(90 26.0117 24.2422)" fill="url(#paint13_radial_2555_24228)"/>
  </g>
  <g filter="url(#filter5_f_2555_24228)">
    <rect x="19.9766" y="25.9219" width="5.37025" height="1.4762" rx="0.7381" fill="url(#paint14_linear_2555_24228)"/>
  </g>
  <g filter="url(#filter6_i_2555_24228)">
    <rect x="27.3086" y="19.9609" width="5.96377" height="10.1593" rx="2.9101" transform="rotate(90 27.3086 19.9609)" fill="url(#paint15_linear_2555_24228)"/>
    <rect x="27.3086" y="19.9609" width="5.96377" height="10.1593" rx="2.9101" transform="rotate(90 27.3086 19.9609)" fill="url(#paint16_radial_2555_24228)"/>
    <rect x="27.3086" y="19.9609" width="5.96377" height="10.1593" rx="2.9101" transform="rotate(90 27.3086 19.9609)" fill="url(#paint17_radial_2555_24228)"/>
  </g>
  <g filter="url(#filter7_f_2555_24228)">
    <rect x="19.5859" y="22.0547" width="6.72485" height="1.4762" rx="0.7381" fill="url(#paint18_linear_2555_24228)"/>
  </g>
  <g filter="url(#filter8_i_2555_24228)">
    <rect x="27.2637" y="15.5078" width="5.83326" height="10.1136" rx="2.9101" transform="rotate(90 27.2637 15.5078)" fill="url(#paint19_linear_2555_24228)"/>
    <rect x="27.2637" y="15.5078" width="5.83326" height="10.1136" rx="2.9101" transform="rotate(90 27.2637 15.5078)" fill="url(#paint20_radial_2555_24228)"/>
  </g>
  <g filter="url(#filter9_f_2555_24228)">
    <rect x="19.1387" y="16.7344" width="7.17206" height="2.51555" rx="1.25777" fill="url(#paint21_linear_2555_24228)"/>
  </g>
  <path d="M15.9213 2.09375C14.1051 2.09375 12.6328 3.56609 12.6328 5.38229V7.93465L12.6309 7.93379C12.6309 8.49629 12.5527 9.70964 12.1504 10.4572C11.6863 11.3196 10.8068 11.8468 10.0871 12.2782C9.86792 12.4096 9.66351 12.5322 9.49023 12.6525C10.485 13.4494 12.5223 15.0416 12.5723 15.0041C12.6223 14.9666 14.916 13.7489 16.0566 13.1447L16.0081 12.4542C17.7842 12.4081 19.2098 10.9539 19.2098 9.16675V5.38229C19.2098 3.56609 17.7375 2.09375 15.9213 2.09375Z" fill="url(#paint22_radial_2555_24228)"/>
  <g filter="url(#filter10_f_2555_24228)">
    <rect x="15.5039" y="3.33594" width="2.86524" height="7.9974" rx="1.43262" fill="url(#paint23_linear_2555_24228)"/>
  </g>
  <defs>
    <filter id="filter0_i_2555_24228" x="5.27148" y="2.09375" width="19.0488" height="27.8125" filterUnits="userSpaceOnUse" color-interpolation-filters="sRGB">
      <feFlood flood-opacity="0" result="BackgroundImageFix"/>
      <feBlend mode="normal" in="SourceGraphic" in2="BackgroundImageFix" result="shape"/>
      <feColorMatrix in="SourceAlpha" type="matrix" values="0 0 0 0 0 0 0 0 0 0 0 0 0 0 0 0 0 0 127 0" result="hardAlpha"/>
      <feOffset dx="0.5"/>
      <feGaussianBlur stdDeviation="1.5"/>
      <feComposite in2="hardAlpha" operator="arithmetic" k2="-1" k3="1"/>
      <feColorMatrix type="matrix" values="0 0 0 0 0.458824 0 0 0 0 0.360784 0 0 0 0 0.32549 0 0 0 1 0"/>
      <feBlend mode="normal" in2="shape" result="effect1_innerShadow_2555_24228"/>
    </filter>
    <filter id="filter1_f_2555_24228" x="14" y="10.3828" width="12.9082" height="20.6172" filterUnits="userSpaceOnUse" color-interpolation-filters="sRGB">
      <feFlood flood-opacity="0" result="BackgroundImageFix"/>
      <feBlend mode="normal" in="SourceGraphic" in2="BackgroundImageFix" result="shape"/>
      <feGaussianBlur stdDeviation="1" result="effect1_foregroundBlur_2555_24228"/>
    </filter>
    <filter id="filter2_i_2555_24228" x="17.2676" y="10.9531" width="9.54297" height="5.82031" filterUnits="userSpaceOnUse" color-interpolation-filters="sRGB">
      <feFlood flood-opacity="0" result="BackgroundImageFix"/>
      <feBlend mode="normal" in="SourceGraphic" in2="BackgroundImageFix" result="shape"/>
      <feColorMatrix in="SourceAlpha" type="matrix" values="0 0 0 0 0 0 0 0 0 0 0 0 0 0 0 0 0 0 127 0" result="hardAlpha"/>
      <feOffset dx="0.5"/>
      <feGaussianBlur stdDeviation="0.75"/>
      <feComposite in2="hardAlpha" operator="arithmetic" k2="-1" k3="1"/>
      <feColorMatrix type="matrix" values="0 0 0 0 0.407843 0 0 0 0 0.258824 0 0 0 0 0.2 0 0 0 1 0"/>
      <feBlend mode="normal" in2="shape" result="effect1_innerShadow_2555_24228"/>
    </filter>
    <filter id="filter3_f_2555_24228" x="17.9609" y="11.1328" width="8.63477" height="5.01562" filterUnits="userSpaceOnUse" color-interpolation-filters="sRGB">
      <feFlood flood-opacity="0" result="BackgroundImageFix"/>
      <feBlend mode="normal" in="SourceGraphic" in2="BackgroundImageFix" result="shape"/>
      <feGaussianBlur stdDeviation="0.625" result="effect1_foregroundBlur_2555_24228"/>
    </filter>
    <filter id="filter4_i_2555_24228" x="17.1504" y="24.2422" width="9.36133" height="6.16406" filterUnits="userSpaceOnUse" color-interpolation-filters="sRGB">
      <feFlood flood-opacity="0" result="BackgroundImageFix"/>
      <feBlend mode="normal" in="SourceGraphic" in2="BackgroundImageFix" result="shape"/>
      <feColorMatrix in="SourceAlpha" type="matrix" values="0 0 0 0 0 0 0 0 0 0 0 0 0 0 0 0 0 0 127 0" result="hardAlpha"/>
      <feOffset dx="0.5" dy="0.5"/>
      <feGaussianBlur stdDeviation="0.75"/>
      <feComposite in2="hardAlpha" operator="arithmetic" k2="-1" k3="1"/>
      <feColorMatrix type="matrix" values="0 0 0 0 0.380392 0 0 0 0 0.235294 0 0 0 0 0.235294 0 0 0 1 0"/>
      <feBlend mode="normal" in2="shape" result="effect1_innerShadow_2555_24228"/>
    </filter>
    <filter id="filter5_f_2555_24228" x="18.7266" y="24.6719" width="7.87109" height="3.97656" filterUnits="userSpaceOnUse" color-interpolation-filters="sRGB">
      <feFlood flood-opacity="0" result="BackgroundImageFix"/>
      <feBlend mode="normal" in="SourceGraphic" in2="BackgroundImageFix" result="shape"/>
      <feGaussianBlur stdDeviation="0.625" result="effect1_foregroundBlur_2555_24228"/>
    </filter>
    <filter id="filter6_i_2555_24228" x="17.1484" y="19.9609" width="10.6602" height="6.96094" filterUnits="userSpaceOnUse" color-interpolation-filters="sRGB">
      <feFlood flood-opacity="0" result="BackgroundImageFix"/>
      <feBlend mode="normal" in="SourceGraphic" in2="BackgroundImageFix" result="shape"/>
      <feColorMatrix in="SourceAlpha" type="matrix" values="0 0 0 0 0 0 0 0 0 0 0 0 0 0 0 0 0 0 127 0" result="hardAlpha"/>
      <feOffset dx="0.5" dy="1"/>
      <feGaussianBlur stdDeviation="0.75"/>
      <feComposite in2="hardAlpha" operator="arithmetic" k2="-1" k3="1"/>
      <feColorMatrix type="matrix" values="0 0 0 0 0.435294 0 0 0 0 0.301961 0 0 0 0 0.247059 0 0 0 1 0"/>
      <feBlend mode="normal" in2="shape" result="effect1_innerShadow_2555_24228"/>
    </filter>
    <filter id="filter7_f_2555_24228" x="18.3359" y="20.8047" width="9.22461" height="3.97656" filterUnits="userSpaceOnUse" color-interpolation-filters="sRGB">
      <feFlood flood-opacity="0" result="BackgroundImageFix"/>
      <feBlend mode="normal" in="SourceGraphic" in2="BackgroundImageFix" result="shape"/>
      <feGaussianBlur stdDeviation="0.625" result="effect1_foregroundBlur_2555_24228"/>
    </filter>
    <filter id="filter8_i_2555_24228" x="17.1504" y="15.5078" width="10.6133" height="6.33594" filterUnits="userSpaceOnUse" color-interpolation-filters="sRGB">
      <feFlood flood-opacity="0" result="BackgroundImageFix"/>
      <feBlend mode="normal" in="SourceGraphic" in2="BackgroundImageFix" result="shape"/>
      <feColorMatrix in="SourceAlpha" type="matrix" values="0 0 0 0 0 0 0 0 0 0 0 0 0 0 0 0 0 0 127 0" result="hardAlpha"/>
      <feOffset dx="0.5" dy="0.5"/>
      <feGaussianBlur stdDeviation="0.75"/>
      <feComposite in2="hardAlpha" operator="arithmetic" k2="-1" k3="1"/>
      <feColorMatrix type="matrix" values="0 0 0 0 0.435294 0 0 0 0 0.301961 0 0 0 0 0.247059 0 0 0 1 0"/>
      <feBlend mode="normal" in2="shape" result="effect1_innerShadow_2555_24228"/>
    </filter>
    <filter id="filter9_f_2555_24228" x="17.8887" y="15.4844" width="9.67188" height="5.01562" filterUnits="userSpaceOnUse" color-interpolation-filters="sRGB">
      <feFlood flood-opacity="0" result="BackgroundImageFix"/>
      <feBlend mode="normal" in="SourceGraphic" in2="BackgroundImageFix" result="shape"/>
      <feGaussianBlur stdDeviation="0.625" result="effect1_foregroundBlur_2555_24228"/>
    </filter>
    <filter id="filter10_f_2555_24228" x="14.2539" y="2.08594" width="5.36523" height="10.5" filterUnits="userSpaceOnUse" color-interpolation-filters="sRGB">
      <feFlood flood-opacity="0" result="BackgroundImageFix"/>
      <feBlend mode="normal" in="SourceGraphic" in2="BackgroundImageFix" result="shape"/>
      <feGaussianBlur stdDeviation="0.625" result="effect1_foregroundBlur_2555_24228"/>
    </filter>
    <linearGradient id="paint0_linear_2555_24228" x1="17.8757" y1="10.599" x2="9.54645" y2="28.051" gradientUnits="userSpaceOnUse">
      <stop stop-color="#997363"/>
      <stop offset="1" stop-color="#835060"/>
    </linearGradient>
    <radialGradient id="paint1_radial_2555_24228" cx="0" cy="0" r="1" gradientUnits="userSpaceOnUse" gradientTransform="translate(18.1597 4.11853) rotate(138.27) scale(4.15174 3.36548)">
      <stop stop-color="#A07A69"/>
      <stop offset="1" stop-color="#A07A69" stop-opacity="0"/>
    </radialGradient>
    <radialGradient id="paint2_radial_2555_24228" cx="0" cy="0" r="1" gradientUnits="userSpaceOnUse" gradientTransform="translate(10.7486 15.9983) rotate(133.564) scale(7.41221 5.36952)">
      <stop stop-color="#7D594C"/>
      <stop offset="1" stop-color="#7D594C" stop-opacity="0"/>
    </radialGradient>
    <radialGradient id="paint3_radial_2555_24228" cx="0" cy="0" r="1" gradientUnits="userSpaceOnUse" gradientTransform="translate(20.2951 16.8891) rotate(135.794) scale(10.6892 6.58962)">
      <stop stop-color="#624543"/>
      <stop offset="1" stop-color="#624543" stop-opacity="0"/>
    </radialGradient>
    <radialGradient id="paint4_radial_2555_24228" cx="0" cy="0" r="1" gradientUnits="userSpaceOnUse" gradientTransform="translate(13.5257 30.7928) rotate(-67.3149) scale(10.7129 14.1643)">
      <stop stop-color="#794069"/>
      <stop offset="1" stop-color="#794069" stop-opacity="0"/>
    </radialGradient>
    <radialGradient id="paint5_radial_2555_24228" cx="0" cy="0" r="1" gradientUnits="userSpaceOnUse" gradientTransform="translate(20.5882 20.8668) rotate(-180) scale(15.534 23.9075)">
      <stop offset="0.863834" stop-color="#846059" stop-opacity="0"/>
      <stop offset="1" stop-color="#846059"/>
    </radialGradient>
    <radialGradient id="paint6_radial_2555_24228" cx="0" cy="0" r="1" gradientUnits="userSpaceOnUse" gradientTransform="translate(18.7198 11.3797) rotate(38.8999) scale(1.56226 2.05738)">
      <stop stop-color="#957466"/>
      <stop offset="1" stop-color="#957466" stop-opacity="0"/>
    </radialGradient>
    <linearGradient id="paint7_linear_2555_24228" x1="21.3932" y1="10.9359" x2="18.6636" y2="26.3642" gradientUnits="userSpaceOnUse">
      <stop stop-color="#482826"/>
      <stop offset="1" stop-color="#6E3657"/>
    </linearGradient>
    <linearGradient id="paint8_linear_2555_24228" x1="29.2206" y1="10.9531" x2="29.2207" y2="18.2149" gradientUnits="userSpaceOnUse">
      <stop stop-color="#9B7766"/>
      <stop offset="1" stop-color="#6F4A47"/>
    </linearGradient>
    <radialGradient id="paint9_radial_2555_24228" cx="0" cy="0" r="1" gradientUnits="userSpaceOnUse" gradientTransform="translate(31.8003 18.5257) rotate(127.367) scale(2.3211 1.55368)">
      <stop stop-color="#4F2E2B"/>
      <stop offset="1" stop-color="#4F2E2B" stop-opacity="0"/>
    </radialGradient>
    <linearGradient id="paint10_linear_2555_24228" x1="25.0279" y1="13.0726" x2="18.4141" y2="13.0726" gradientUnits="userSpaceOnUse">
      <stop stop-color="#A17C71"/>
      <stop offset="1" stop-color="#A17C71" stop-opacity="0"/>
    </linearGradient>
    <linearGradient id="paint11_linear_2555_24228" x1="28.8435" y1="25.0184" x2="28.8435" y2="33.103" gradientUnits="userSpaceOnUse">
      <stop stop-color="#966962"/>
      <stop offset="1" stop-color="#6C4646"/>
    </linearGradient>
    <radialGradient id="paint12_radial_2555_24228" cx="0" cy="0" r="1" gradientUnits="userSpaceOnUse" gradientTransform="translate(31.6753 31.308) rotate(-90) scale(7.31347 2.78222)">
      <stop stop-color="#7B3F6B"/>
      <stop offset="1" stop-color="#7B3F6B" stop-opacity="0"/>
    </radialGradient>
    <radialGradient id="paint13_radial_2555_24228" cx="0" cy="0" r="1" gradientUnits="userSpaceOnUse" gradientTransform="translate(27.006 31.6591) rotate(-90) scale(7.4169 1.66759)">
      <stop stop-color="#532E2D"/>
      <stop offset="1" stop-color="#532E2D" stop-opacity="0"/>
    </radialGradient>
    <linearGradient id="paint14_linear_2555_24228" x1="25.0678" y1="26.3266" x2="19.2791" y2="26.3266" gradientUnits="userSpaceOnUse">
      <stop stop-color="#997570"/>
      <stop offset="1" stop-color="#997570" stop-opacity="0"/>
    </linearGradient>
    <linearGradient id="paint15_linear_2555_24228" x1="30.2905" y1="20.8509" x2="30.2905" y2="30.1203" gradientUnits="userSpaceOnUse">
      <stop stop-color="#9C7365"/>
      <stop offset="1" stop-color="#754F4C"/>
    </linearGradient>
    <radialGradient id="paint16_radial_2555_24228" cx="0" cy="0" r="1" gradientUnits="userSpaceOnUse" gradientTransform="translate(33.2724 28.0622) rotate(-90) scale(9.21683 3.27876)">
      <stop offset="0.139674" stop-color="#77405B"/>
      <stop offset="1" stop-color="#77405B" stop-opacity="0"/>
    </radialGradient>
    <radialGradient id="paint17_radial_2555_24228" cx="0" cy="0" r="1" gradientUnits="userSpaceOnUse" gradientTransform="translate(28.3555 28.4647) rotate(-90) scale(8.50376 2.09648)">
      <stop stop-color="#663B39"/>
      <stop offset="1" stop-color="#663B39" stop-opacity="0"/>
    </radialGradient>
    <linearGradient id="paint18_linear_2555_24228" x1="25.9614" y1="22.4594" x2="18.7126" y2="22.4594" gradientUnits="userSpaceOnUse">
      <stop stop-color="#A37E74"/>
      <stop offset="1" stop-color="#A37E74" stop-opacity="0"/>
    </linearGradient>
    <linearGradient id="paint19_linear_2555_24228" x1="30.1803" y1="15.5078" x2="30.1803" y2="25.6214" gradientUnits="userSpaceOnUse">
      <stop stop-color="#9C7563"/>
      <stop offset="1" stop-color="#744E49"/>
    </linearGradient>
    <radialGradient id="paint20_radial_2555_24228" cx="0" cy="0" r="1" gradientUnits="userSpaceOnUse" gradientTransform="translate(33.0969 23.0528) rotate(-90) scale(8.09375 3.75685)">
      <stop stop-color="#744157"/>
      <stop offset="1" stop-color="#744157" stop-opacity="0"/>
    </radialGradient>
    <linearGradient id="paint21_linear_2555_24228" x1="25.9382" y1="17.4241" x2="18.2072" y2="17.4241" gradientUnits="userSpaceOnUse">
      <stop stop-color="#A68074"/>
      <stop offset="1" stop-color="#A68074" stop-opacity="0"/>
    </linearGradient>
    <radialGradient id="paint22_radial_2555_24228" cx="0" cy="0" r="1" gradientUnits="userSpaceOnUse" gradientTransform="translate(12.7058 5.85616) rotate(90) scale(6.57369 2.59444)">
      <stop stop-color="#734E48"/>
      <stop offset="1" stop-color="#734E48" stop-opacity="0"/>
    </radialGradient>
    <linearGradient id="paint23_linear_2555_24228" x1="18.2203" y1="5.52875" x2="15.1318" y2="5.52875" gradientUnits="userSpaceOnUse">
      <stop stop-color="#A17C70"/>
      <stop offset="1" stop-color="#A17C70" stop-opacity="0"/>
    </linearGradient>
  </defs>
</svg>
