<svg width="27" height="27" viewBox="0 0 27 27" fill="none" xmlns="http://www.w3.org/2000/svg">
  <g clip-path="url(#clip0_2555_44622)">
    <path d="M13.501 24.75C7.2876 24.75 2.25098 19.7134 2.25098 13.5C2.25098 7.28663 7.2876 2.25 13.501 2.25C19.7144 2.25 24.751 7.28663 24.751 13.5C24.751 19.7134 19.7144 24.75 13.501 24.75ZM7.8906 20.538C9.48309 21.8112 11.4621 22.5032 13.501 22.5C15.7172 22.5 17.7456 21.699 19.3139 20.3715C18.5812 19.6197 17.7052 19.0225 16.7376 18.6152C15.7701 18.2078 14.7307 17.9986 13.681 18C12.5926 17.9987 11.5159 18.2237 10.5191 18.6606C9.52233 19.0975 8.62723 19.7368 7.8906 20.538ZM6.31898 18.9225C7.26449 17.9191 8.40548 17.1199 9.67163 16.5743C10.9378 16.0287 12.3023 15.7482 13.681 15.75C15.0103 15.7483 16.3269 16.0092 17.5552 16.5177C18.7834 17.0262 19.8991 17.7723 20.8382 18.7133C21.8013 17.3578 22.3701 15.762 22.4814 14.1029C22.5927 12.4438 22.2422 10.7864 21.4688 9.31439C20.6954 7.8424 19.5293 6.61345 18.0999 5.76388C16.6706 4.9143 15.0338 4.47732 13.3712 4.50141C11.7085 4.5255 10.0851 5.00972 8.68094 5.90035C7.27678 6.79098 6.14681 8.0532 5.41638 9.54698C4.68595 11.0408 4.38363 12.7077 4.54296 14.3628C4.70228 16.018 5.31702 17.5966 6.31898 18.9236V18.9225ZM13.501 14.625C12.3075 14.625 11.1629 14.1509 10.319 13.307C9.47508 12.4631 9.00098 11.3185 9.00098 10.125C9.00098 8.93153 9.47508 7.78693 10.319 6.94302C11.1629 6.09911 12.3075 5.625 13.501 5.625C14.6945 5.625 15.839 6.09911 16.683 6.94302C17.5269 7.78693 18.001 8.93153 18.001 10.125C18.001 11.3185 17.5269 12.4631 16.683 13.307C15.839 14.1509 14.6945 14.625 13.501 14.625ZM13.501 12.375C14.0977 12.375 14.67 12.1379 15.092 11.716C15.5139 11.294 15.751 10.7217 15.751 10.125C15.751 9.52826 15.5139 8.95597 15.092 8.53401C14.67 8.11205 14.0977 7.875 13.501 7.875C12.9042 7.875 12.3319 8.11205 11.91 8.53401C11.488 8.95597 11.251 9.52826 11.251 10.125C11.251 10.7217 11.488 11.294 11.91 11.716C12.3319 12.1379 12.9042 12.375 13.501 12.375Z" fill="currentColor" fill-opacity="0.8"/>
  </g>
  <defs>
    <clipPath id="clip0_2555_44622">
      <rect width="27" height="27" fill="white" transform="translate(0.000976562)"/>
    </clipPath>
  </defs>
</svg>
